<svg width="20" height="20" viewBox="0 0 20 20" fill="none" xmlns="http://www.w3.org/2000/svg">
    <path
        d="M14.2167 2.07839C14.042 0.151724 12.696 0.150391 11.87 0.150391H8.13669C8.00408 0.150391 7.8769 0.203069 7.78313 0.296837C7.68936 0.390605 7.63669 0.517782 7.63669 0.650391C7.63669 0.782999 7.68936 0.910176 7.78313 1.00394C7.8769 1.09771 8.00408 1.15039 8.13669 1.15039H11.87C12.8034 1.15039 13.2347 1.15039 13.2367 2.51039C13.2367 3.44572 13.2407 3.88172 11.87 3.88106H8.13669C7.19802 3.88106 6.77002 3.88106 6.77002 2.51439C6.77735 2.17039 6.40669 1.91639 6.08935 2.05039C2.50802 2.29306 1.10335 4.00372 1.10335 8.11706V13.7171C0.886019 21.4351 6.92535 19.5651 12.8034 19.8171C17.9054 19.8171 18.9034 17.5804 18.9034 13.7171V8.11706C18.9034 4.12172 17.5767 2.39372 14.2167 2.07839ZM17.9054 13.7171C17.9054 17.2437 17.172 18.8171 12.8054 18.8171H7.20335C2.83935 18.8171 2.10335 17.2437 2.10335 13.7171V8.11706C2.10335 4.26506 3.34935 3.30239 5.80535 3.07506C6.02602 4.87506 7.32869 4.88372 8.13869 4.88372H11.872C13.7854 4.88372 14.1514 3.91572 14.222 3.07706C16.6654 3.30706 17.9054 4.27706 17.9054 8.11706V13.7171Z"
        fill="currentColor" />
    <path
        d="M6.5316 7.00992L5.46894 8.07326L5.1736 7.77792C4.7356 7.29326 3.99427 7.95726 4.4296 8.44592C4.82494 8.77059 5.2836 9.62392 5.8216 9.13392L7.22694 7.72859C7.69427 7.27259 7.00427 6.55659 6.5316 7.00992ZM15.1843 7.57792H8.92894C8.27694 7.58059 8.27361 8.57526 8.92894 8.57792H15.1843C15.8363 8.57526 15.8396 7.58059 15.1843 7.57792ZM6.51894 10.3979L5.46827 11.4506L5.17294 11.1559C4.71094 10.7253 4.0356 11.4006 4.46627 11.8626C4.8136 12.1466 5.3056 13.0026 5.82094 12.5099L7.22627 11.1053C7.68627 10.6413 6.98427 9.93726 6.51894 10.3979ZM15.1843 10.9539H8.92894C8.27694 10.9566 8.27361 11.9513 8.92894 11.9539H15.1843C15.8363 11.9513 15.8396 10.9566 15.1843 10.9539ZM6.51894 13.7746L5.46827 14.8259L5.17294 14.5306C4.70627 14.0226 3.9576 14.7726 4.46827 15.2379C4.81494 15.5233 5.30427 16.3793 5.82094 15.8866L7.22627 14.4813C7.67094 14.0186 6.98294 13.3286 6.51894 13.7746ZM15.1843 14.3306H8.92894C8.27694 14.3333 8.27361 15.3279 8.92894 15.3306H15.1843C15.8363 15.3279 15.8396 14.3333 15.1843 14.3306Z"
        fill="currentColor" />
</svg>