<svg width="214" height="140" viewBox="0 0 214 140" fill="none" xmlns="http://www.w3.org/2000/svg">
<path d="M146.502 35.185L147.647 34.5019C147.647 34.5294 147.646 34.5568 147.646 34.5843C147.266 34.7872 146.885 34.9873 146.502 35.185Z" fill="white"/>
<path d="M157.231 28.7853C156.854 29.0441 156.475 29.2994 156.094 29.5521C156.095 29.5225 156.095 29.4929 156.095 29.4633L157.231 28.7853Z" fill="white"/>
<path d="M156.095 29.4633C156.095 29.4929 156.095 29.5224 156.094 29.5521C156.091 30.2164 156.078 30.8812 156.058 31.5465C156.009 33.2124 155.919 34.8792 155.829 36.5447C155.728 38.4219 155.343 40.2786 155.064 42.1389C154.758 44.1742 154.553 46.2496 154.074 48.224C153.259 51.5846 152.286 54.8885 151.338 58.1981C150.701 60.4209 150.059 62.6483 149.296 64.8078C148.614 66.7347 147.702 68.5379 146.999 70.4551C145.594 74.2893 144.066 78.045 142.16 81.5346C140.086 85.3304 137.947 89.0782 135.719 92.7398C134.325 95.0322 132.454 96.7392 130.356 98.0095C126.841 100.138 123.298 99.3565 120.562 95.8417C118.641 93.3729 117.005 90.6191 115.837 87.5295C114.4 83.7285 112.923 79.9152 111.86 75.9469C111.153 73.3021 110.574 70.6015 110.049 67.883C109.697 66.0616 109.37 64.2323 109.044 62.4069C108.872 61.4406 108.732 60.4644 108.613 59.4824C108.406 57.7599 108.268 56.0194 108.15 54.2874C108.074 53.1617 108.068 52.0368 108.131 50.9185C108.188 49.9047 108.302 48.8962 108.47 47.8964C108.574 47.2821 108.698 46.6709 108.842 46.0641C109.84 41.8574 111.007 37.6952 111.335 33.2999C111.59 29.8875 111.582 26.4894 111.091 23.0766C110.403 18.2927 108.985 13.9672 106.911 10.0293C106.195 8.66879 105.401 7.35488 104.53 6.08417C104.416 5.91726 104.301 5.75087 104.184 5.58531C103.866 5.13526 103.581 4.6504 103.281 4.18207C103.344 4.0732 103.406 3.96426 103.469 3.85531C104.55 4.41078 105.688 4.84297 106.702 5.54261C107.291 5.94863 107.866 6.37251 108.426 6.81341C109.207 7.42944 109.959 8.07893 110.683 8.76381C114.218 12.1113 117.053 16.2944 119.099 21.3872C119.798 23.1267 120.231 24.9786 120.191 26.9591C120.131 29.918 121.21 32.0453 123.283 33.5431C124.324 34.295 125.266 35.2591 126.228 36.167C126.733 36.6444 126.763 37.2823 126.383 37.8969C125.893 38.6885 125.371 39.4483 124.865 40.2246C124.318 41.0628 124.373 41.5107 124.869 42.3811C125.087 42.7649 125.304 43.1953 125.448 43.6396C125.527 43.8828 125.584 44.1302 125.608 44.3763C125.676 45.0786 125.697 45.7865 125.71 46.4967C125.726 47.31 125.73 48.1251 125.779 48.935C125.864 50.3473 125.91 51.7941 126.208 53.1486C126.604 54.9543 126.164 56.5549 124.701 57.1369C123.161 57.7494 121.563 58.1376 119.997 58.6495C119.192 58.9126 118.376 59.1509 117.587 59.472H117.585C117.394 59.55 117.205 59.6332 117.016 59.7225C115.151 60.6095 114.421 62.5664 114.302 64.8126C114.246 65.8425 114.253 66.8658 114.312 67.8835C114.432 69.952 114.767 71.9959 115.238 74.02C116.521 79.5362 119.13 83.9637 122.634 87.6279C123.539 88.5738 124.637 89.3384 125.746 89.8715C127.772 90.8443 129.556 89.9865 131.161 88.3446C132.755 86.7131 133.759 84.5353 134.841 82.4377C137.687 76.9215 139.815 70.9714 141.821 64.9459C143.512 59.8666 144.875 54.6664 145.909 49.3292C146.694 45.2768 147.335 41.1944 147.562 37.0627C147.607 36.2384 147.636 35.4125 147.646 34.5843C147.646 34.5568 147.647 34.5294 147.647 34.502C147.655 33.7848 147.649 33.0664 147.627 32.3463C147.492 27.8692 146.783 23.5187 144.605 19.716C142.888 16.7183 140.632 14.7074 137.774 13.6788C133.908 12.2873 130.045 12.6777 126.186 13.7062C124.402 14.1811 122.626 14.696 120.845 15.1831C120.583 15.2545 120.312 15.2698 119.914 15.112C120.07 14.8433 120.192 14.527 120.388 14.3127C123.809 10.5691 127.583 7.49603 131.939 5.66112C136.895 3.57393 141.894 3.08555 146.907 5.4829C150.68 7.28694 153.153 10.6001 154.374 15.2724C154.873 17.1814 155.083 19.2028 155.446 21.1671C155.955 23.9208 156.107 26.6895 156.095 29.4633Z" fill="white"/>
<path d="M103.254 6.23659C104.154 7.51175 104.974 8.83304 105.708 10.191C104.894 10.2559 104.061 10.2319 103.204 10.0973C101.205 9.78321 99.257 9.14235 97.2903 8.63217C94.4212 7.88774 91.5636 7.09919 88.6872 6.38428C86.3844 5.81145 84.1385 6.11464 81.9915 7.08259C75.1946 10.1483 71.4269 15.3896 70.6441 22.7743C70.0018 28.8284 70.9045 34.7271 72.4705 40.55C73.2446 43.4301 74.1389 46.278 74.9785 49.1401C75.2839 50.1822 75.2061 50.353 74.1341 50.4201C72.6959 50.5107 71.2524 50.5207 69.8111 50.559C69.2068 50.5752 68.7938 50.2933 68.5505 49.7418C65.5109 42.8489 62.6913 35.8829 61.7388 28.3366C60.8948 21.6494 61.9126 15.3695 66.0526 9.82766C68.5378 6.50061 71.6864 3.89107 75.2695 1.84657C78.1669 0.192819 81.3675 -0.193988 84.6942 0.0808542C89.4149 0.470767 93.5654 2.62682 97.9413 4.09975C99.5637 4.64608 101.201 5.16708 102.851 5.63197C102.979 5.83401 103.112 6.03706 103.254 6.23659Z" fill="white"/>
<path d="M108.457 73.7607C108.153 73.8863 107.858 74.0454 107.543 74.1324C102.303 75.5805 99.7871 79.3114 99.0188 84.3941C98.5235 87.6696 98.243 90.9769 97.8407 94.2669C97.3614 98.1864 94.4497 100.948 90.8374 100.847C88.4973 100.782 86.6027 99.7386 85.1597 97.9118C82.6937 94.7901 81.3165 91.1916 80.4755 87.3474C79.1469 81.274 77.8311 75.1969 76.4094 69.1447C75.4545 65.0789 74.006 61.1695 72.1497 57.4166C71.5989 56.3028 71.7291 56.1073 72.9629 56.0754C73.8946 56.0514 74.8292 56.0444 75.7561 55.9608C77.0432 55.8447 77.3305 55.9917 77.7735 57.2109C80.2381 63.9917 82.4114 70.8403 83.5583 77.9982C84.311 82.6958 86.2569 86.9881 88.9681 90.9164C89.9272 92.3064 91.132 92.6876 92.2644 91.8354C92.7625 91.4607 93.1977 90.8064 93.3459 90.2024C93.9283 87.8298 94.3663 85.4227 94.8965 83.0369C95.1642 81.8319 95.4253 80.6131 95.8457 79.4567C96.852 76.6886 98.814 74.8517 101.725 74.2617C103.733 73.8544 105.799 73.7267 107.84 73.4849C108.021 73.4635 108.211 73.5226 108.397 73.5443C108.417 73.6164 108.437 73.6886 108.457 73.7607Z" fill="white"/>
<path d="M93.1467 50.2676C97.8936 49.7239 102.607 49.0168 107.282 48.1272C107.128 49.1301 107.027 50.136 106.981 51.1419C101.089 52.2672 95.1463 53.0932 89.148 53.5611C84.6132 53.9148 80.0615 54.1021 75.5136 54.2337C70.6534 54.3745 65.7866 54.4551 60.9254 54.3849C57.0002 54.3278 53.0772 54.0395 49.1568 53.7942C45.8013 53.5841 42.4506 53.2914 39.0985 53.0283C38.8347 53.0074 38.5747 52.9329 38.3131 52.8837C38.3236 52.786 38.3341 52.6885 38.3446 52.5914C38.7218 52.563 39.0985 52.5098 39.4756 52.5098C45.4438 52.5051 51.4123 52.5486 57.3804 52.4942C61.9594 52.4523 66.5483 52.4475 71.1137 52.1435C78.4679 51.6534 85.8266 51.1058 93.1467 50.2676Z" fill="white"/>
<path d="M130.372 42.0356C135.949 40.1161 141.338 37.8573 146.501 35.1854C146.484 35.9535 146.448 36.796 146.384 37.7266C140.139 41.1856 133.599 43.9328 126.84 46.1341C126.826 45.5181 126.8 44.8925 126.74 44.2683C126.71 43.9559 126.643 43.6366 126.534 43.3011V43.3007C127.817 42.896 129.097 42.4742 130.372 42.0356Z" fill="white"/>
<path d="M169.134 19.6071C168.968 19.8324 168.821 20.0767 168.631 20.2811C165.103 24.0795 161.306 27.5564 157.217 30.6773C157.229 30.0478 157.235 29.417 157.231 28.7853C159.493 27.237 161.699 25.5863 163.844 23.8259C165.283 22.6449 166.656 21.3836 168.064 20.1646C168.351 19.9164 168.657 19.6907 168.955 19.4546C169.015 19.5056 169.074 19.5561 169.134 19.6071Z" fill="white"/>
<path d="M0.955078 123.944V112.922H3.51708V121.866H9.0681V123.944H0.955078Z" fill="white"/>
<path d="M9.12184 123.944L14.0561 112.922H16.5864L21.5365 123.944H18.848L14.7994 114.213H15.8115L11.7471 123.944H9.12184ZM11.589 121.582L12.269 119.646H17.9623L18.6582 121.582H11.589Z" fill="white"/>
<path d="M25.4038 123.944L20.6278 112.922H23.3954L27.5705 122.685H25.9416L30.1799 112.922H32.7261L27.9342 123.944H25.4038Z" fill="white"/>
<path d="M36.0068 117.362H41.3364V119.347H36.0068V117.362ZM36.1966 121.897H42.2221V123.944H33.6504V112.922H42.0165V114.969H36.1966V121.897Z" fill="white"/>
<path d="M44.2606 123.944V112.922H46.3798L52.9113 120.858H51.8833V112.922H54.4137V123.944H52.3103L45.763 116.008H46.791V123.944H44.2606Z" fill="white"/>
<path d="M57.0329 123.944V112.922H62.062C63.264 112.922 64.3236 113.153 65.2408 113.615C66.1581 114.066 66.875 114.701 67.3916 115.52C67.9083 116.339 68.1666 117.31 68.1666 118.433C68.1666 119.546 67.9083 120.517 67.3916 121.346C66.875 122.165 66.1581 122.805 65.2408 123.267C64.3236 123.719 63.264 123.944 62.062 123.944H57.0329ZM59.5949 121.85H61.9355C62.6735 121.85 63.3114 121.714 63.8491 121.441C64.3974 121.157 64.8191 120.758 65.1143 120.244C65.4201 119.73 65.5729 119.126 65.5729 118.433C65.5729 117.73 65.4201 117.126 65.1143 116.622C64.8191 116.108 64.3974 115.714 63.8491 115.441C63.3114 115.158 62.6735 115.016 61.9355 115.016H59.5949V121.85Z" fill="white"/>
<path d="M72.4551 117.362H77.7847V119.347H72.4551V117.362ZM72.6449 121.897H78.6703V123.944H70.0987V112.922H78.4648V114.969H72.6449V121.897Z" fill="white"/>
<path d="M80.7089 123.944V112.922H85.5008C86.4918 112.922 87.3458 113.085 88.0628 113.41C88.7797 113.725 89.3332 114.182 89.7233 114.78C90.1134 115.378 90.3085 116.092 90.3085 116.922C90.3085 117.74 90.1134 118.449 89.7233 119.047C89.3332 119.635 88.7797 120.087 88.0628 120.402C87.3458 120.716 86.4918 120.874 85.5008 120.874H82.1322L83.2709 119.756V123.944H80.7089ZM87.7465 123.944L84.9789 119.945H87.7148L90.5141 123.944H87.7465ZM83.2709 120.039L82.1322 118.843H85.3584C86.1492 118.843 86.7396 118.675 87.1297 118.339C87.5198 117.992 87.7148 117.52 87.7148 116.922C87.7148 116.313 87.5198 115.84 87.1297 115.504C86.7396 115.168 86.1492 115.001 85.3584 115.001H82.1322L83.2709 113.788V120.039Z" fill="white"/>
<path d="M96.8171 123.944V112.922H99.3792V121.866H104.93V123.944H96.8171Z" fill="white"/>
<path d="M104.984 123.944L109.918 112.922H112.449L117.399 123.944H114.71L110.661 114.213H111.674L107.609 123.944H104.984ZM107.451 121.582L108.131 119.646H113.824L114.52 121.582H107.451Z" fill="white"/>
<path d="M118.547 123.944V112.922H120.666L127.198 120.858H126.17V112.922H128.7V123.944H126.597L120.05 116.008H121.077V123.944H118.547Z" fill="white"/>
<path d="M131.319 123.944V112.922H136.349C137.551 112.922 138.61 113.153 139.527 113.615C140.445 114.066 141.162 114.701 141.678 115.52C142.195 116.339 142.453 117.31 142.453 118.433C142.453 119.546 142.195 120.517 141.678 121.346C141.162 122.165 140.445 122.805 139.527 123.267C138.61 123.719 137.551 123.944 136.349 123.944H131.319ZM133.881 121.85H136.222C136.96 121.85 137.598 121.714 138.136 121.441C138.684 121.157 139.106 120.758 139.401 120.244C139.707 119.73 139.859 119.126 139.859 118.433C139.859 117.73 139.707 117.126 139.401 116.622C139.106 116.108 138.684 115.714 138.136 115.441C137.598 115.158 136.96 115.016 136.222 115.016H133.881V121.85Z" fill="white"/>
<path d="M154.162 124.133C153.308 124.133 152.512 123.997 151.774 123.724C151.046 123.441 150.414 123.042 149.876 122.527C149.338 122.013 148.917 121.409 148.611 120.716C148.316 120.024 148.168 119.263 148.168 118.433C148.168 117.604 148.316 116.843 148.611 116.15C148.917 115.457 149.338 114.854 149.876 114.339C150.424 113.825 151.062 113.431 151.79 113.158C152.517 112.875 153.313 112.733 154.178 112.733C155.137 112.733 156.002 112.901 156.771 113.237C157.552 113.562 158.205 114.045 158.733 114.686L157.088 116.197C156.708 115.767 156.286 115.447 155.823 115.237C155.359 115.016 154.853 114.906 154.304 114.906C153.788 114.906 153.313 114.99 152.881 115.158C152.449 115.326 152.074 115.567 151.758 115.882C151.442 116.197 151.194 116.57 151.015 117C150.846 117.431 150.762 117.908 150.762 118.433C150.762 118.958 150.846 119.436 151.015 119.866C151.194 120.297 151.442 120.669 151.758 120.984C152.074 121.299 152.449 121.54 152.881 121.708C153.313 121.876 153.788 121.96 154.304 121.96C154.853 121.96 155.359 121.855 155.823 121.645C156.286 121.425 156.708 121.094 157.088 120.653L158.733 122.165C158.205 122.805 157.552 123.294 156.771 123.63C156.002 123.965 155.132 124.133 154.162 124.133Z" fill="white"/>
<path d="M160.463 123.944V112.922H163.025V121.866H168.576V123.944H160.463Z" fill="white"/>
<path d="M170.023 123.944V112.922H172.585V123.944H170.023Z" fill="white"/>
<path d="M175.212 123.944V112.922H177.331L183.863 120.858H182.835V112.922H185.365V123.944H183.262L176.714 116.008H177.742V123.944H175.212Z" fill="white"/>
<path d="M187.984 123.944V112.922H190.546V123.944H187.984Z" fill="white"/>
<path d="M198.471 124.133C197.617 124.133 196.821 123.997 196.083 123.724C195.356 123.441 194.723 123.042 194.186 122.527C193.648 122.013 193.226 121.409 192.92 120.716C192.625 120.024 192.478 119.263 192.478 118.433C192.478 117.604 192.625 116.843 192.92 116.15C193.226 115.457 193.648 114.854 194.186 114.339C194.734 113.825 195.372 113.431 196.099 113.158C196.827 112.875 197.623 112.733 198.487 112.733C199.447 112.733 200.311 112.901 201.081 113.237C201.861 113.562 202.515 114.045 203.042 114.686L201.397 116.197C201.018 115.767 200.596 115.447 200.132 115.237C199.668 115.016 199.162 114.906 198.614 114.906C198.097 114.906 197.623 114.99 197.19 115.158C196.758 115.326 196.384 115.567 196.068 115.882C195.751 116.197 195.503 116.57 195.324 117C195.156 117.431 195.071 117.908 195.071 118.433C195.071 118.958 195.156 119.436 195.324 119.866C195.503 120.297 195.751 120.669 196.068 120.984C196.384 121.299 196.758 121.54 197.19 121.708C197.623 121.876 198.097 121.96 198.614 121.96C199.162 121.96 199.668 121.855 200.132 121.645C200.596 121.425 201.018 121.094 201.397 120.653L203.042 122.165C202.515 122.805 201.861 123.294 201.081 123.63C200.311 123.965 199.441 124.133 198.471 124.133Z" fill="white"/>
<path d="M208.348 124.133C207.462 124.133 206.613 124.018 205.801 123.787C204.99 123.546 204.336 123.236 203.84 122.858L204.71 120.937C205.185 121.273 205.743 121.551 206.387 121.771C207.04 121.981 207.699 122.086 208.363 122.086C208.87 122.086 209.275 122.039 209.581 121.945C209.897 121.84 210.129 121.698 210.277 121.52C210.425 121.341 210.498 121.136 210.498 120.905C210.498 120.611 210.382 120.381 210.151 120.213C209.919 120.034 209.613 119.892 209.233 119.787C208.854 119.672 208.432 119.567 207.968 119.472C207.515 119.368 207.056 119.242 206.592 119.095C206.139 118.948 205.722 118.759 205.343 118.528C204.963 118.297 204.652 117.992 204.41 117.614C204.178 117.237 204.062 116.754 204.062 116.166C204.062 115.536 204.231 114.964 204.568 114.449C204.916 113.925 205.432 113.51 206.118 113.205C206.814 112.891 207.683 112.733 208.727 112.733C209.423 112.733 210.108 112.817 210.783 112.985C211.458 113.142 212.054 113.384 212.57 113.709L211.779 115.646C211.263 115.352 210.746 115.137 210.23 115.001C209.713 114.854 209.207 114.78 208.711 114.78C208.216 114.78 207.81 114.838 207.494 114.953C207.177 115.069 206.951 115.221 206.814 115.41C206.677 115.588 206.608 115.798 206.608 116.04C206.608 116.323 206.724 116.554 206.956 116.733C207.188 116.901 207.494 117.037 207.873 117.142C208.253 117.247 208.669 117.352 209.123 117.457C209.586 117.562 210.045 117.683 210.498 117.819C210.962 117.956 211.384 118.139 211.764 118.37C212.143 118.601 212.449 118.906 212.681 119.284C212.923 119.661 213.045 120.139 213.045 120.716C213.045 121.336 212.871 121.903 212.523 122.417C212.175 122.931 211.653 123.346 210.957 123.661C210.272 123.976 209.402 124.133 208.348 124.133Z" fill="white"/>
<path d="M27.6319 139.857V131.52H31.4359C32.3451 131.52 33.1465 131.694 33.8404 132.044C34.5342 132.385 35.0765 132.866 35.4672 133.485C35.858 134.104 36.0534 134.839 36.0534 135.688C36.0534 136.53 35.858 137.265 35.4672 137.892C35.0765 138.511 34.5342 138.996 33.8404 139.345C33.1465 139.686 32.3451 139.857 31.4359 139.857H27.6319ZM29.5698 138.273H31.3402C31.8985 138.273 32.3809 138.17 32.7877 137.963C33.2024 137.749 33.5214 137.447 33.7447 137.058C33.9759 136.669 34.0916 136.212 34.0916 135.688C34.0916 135.156 33.9759 134.7 33.7447 134.319C33.5214 133.93 33.2024 133.632 32.7877 133.425C32.3809 133.211 31.8985 133.104 31.3402 133.104H29.5698V138.273Z" fill="white"/>
<path d="M39.2972 134.878H43.3286V136.379H39.2972V134.878ZM39.4408 138.309H43.9984V139.857H37.5149V131.52H43.8429V133.068H39.4408V138.309Z" fill="white"/>
<path d="M45.5404 139.857V131.52H47.1433L52.0838 137.523H51.3062V131.52H53.2202V139.857H51.6292L46.6768 133.854H47.4543V139.857H45.5404Z" fill="white"/>
<path d="M56.9359 139.857V133.092H54.2563V131.52H61.5534V133.092H58.8738V139.857H56.9359Z" fill="white"/>
<path d="M61.075 139.857L64.8072 131.52H66.7212L70.4654 139.857H68.4318L65.3695 132.496H66.135L63.0607 139.857H61.075ZM62.9411 138.07L63.4555 136.606H67.7619L68.2883 138.07H62.9411Z" fill="white"/>
<path d="M71.3342 139.857V131.52H73.2721V138.285H77.4709V139.857H71.3342Z" fill="white"/>
<path d="M81.5706 137.249V135.76H84.9559V137.249H81.5706Z" fill="white"/>
<path d="M89.9436 139.857V131.52H91.8815V138.285H96.0803V139.857H89.9436Z" fill="white"/>
<path d="M96.1092 139.857L99.8415 131.52H101.755L105.5 139.857H103.466L100.404 132.496H101.169L98.095 139.857H96.1092ZM97.9754 138.07L98.4898 136.606H102.796L103.323 138.07H97.9754Z" fill="white"/>
<path d="M109.12 140C108.45 140 107.808 139.913 107.194 139.738C106.58 139.555 106.085 139.321 105.711 139.035L106.368 137.582C106.727 137.836 107.15 138.047 107.636 138.213C108.131 138.372 108.629 138.452 109.132 138.452C109.515 138.452 109.822 138.416 110.053 138.344C110.292 138.265 110.468 138.158 110.579 138.023C110.691 137.888 110.747 137.733 110.747 137.558C110.747 137.336 110.659 137.161 110.483 137.034C110.308 136.899 110.077 136.792 109.79 136.713C109.503 136.625 109.184 136.546 108.833 136.474C108.49 136.395 108.143 136.3 107.792 136.189C107.449 136.077 107.134 135.935 106.847 135.76C106.56 135.585 106.325 135.355 106.141 135.069C105.966 134.783 105.878 134.418 105.878 133.973C105.878 133.497 106.006 133.064 106.261 132.675C106.524 132.278 106.915 131.964 107.433 131.734C107.959 131.496 108.617 131.377 109.407 131.377C109.933 131.377 110.452 131.44 110.962 131.567C111.472 131.686 111.923 131.869 112.314 132.115L111.716 133.58C111.325 133.358 110.934 133.195 110.543 133.092C110.153 132.981 109.77 132.925 109.395 132.925C109.02 132.925 108.713 132.969 108.474 133.056C108.235 133.144 108.063 133.259 107.959 133.402C107.856 133.537 107.804 133.695 107.804 133.878C107.804 134.092 107.892 134.267 108.067 134.402C108.243 134.529 108.474 134.632 108.761 134.712C109.048 134.791 109.363 134.871 109.706 134.95C110.057 135.029 110.404 135.121 110.747 135.224C111.098 135.327 111.417 135.466 111.704 135.641C111.991 135.815 112.222 136.046 112.397 136.332C112.581 136.617 112.673 136.979 112.673 137.415C112.673 137.884 112.541 138.313 112.278 138.702C112.015 139.091 111.62 139.404 111.094 139.643C110.575 139.881 109.917 140 109.12 140Z" fill="white"/>
<path d="M115.779 134.878H119.81V136.379H115.779V134.878ZM115.923 138.309H120.48V139.857H113.997V131.52H120.325V133.068H115.923V138.309Z" fill="white"/>
<path d="M122.022 139.857V131.52H125.647C126.397 131.52 127.042 131.643 127.585 131.889C128.127 132.127 128.546 132.473 128.841 132.925C129.136 133.378 129.283 133.918 129.283 134.545C129.283 135.164 129.136 135.7 128.841 136.153C128.546 136.598 128.127 136.939 127.585 137.177C127.042 137.415 126.397 137.535 125.647 137.535H123.099L123.96 136.689V139.857H122.022ZM127.346 139.857L125.252 136.832H127.322L129.439 139.857H127.346ZM123.96 136.903L123.099 135.998H125.539C126.137 135.998 126.584 135.871 126.879 135.617C127.174 135.355 127.322 134.998 127.322 134.545C127.322 134.084 127.174 133.727 126.879 133.473C126.584 133.219 126.137 133.092 125.539 133.092H123.099L123.96 132.175V136.903Z" fill="white"/>
<path d="M133.836 137.249V135.76H137.221V137.249H133.836Z" fill="white"/>
<path d="M142.209 139.857V131.52H146.013C146.922 131.52 147.723 131.694 148.417 132.044C149.111 132.385 149.653 132.866 150.044 133.485C150.435 134.104 150.63 134.839 150.63 135.688C150.63 136.53 150.435 137.265 150.044 137.892C149.653 138.511 149.111 138.996 148.417 139.345C147.723 139.686 146.922 139.857 146.013 139.857H142.209ZM144.147 138.273H145.917C146.475 138.273 146.958 138.17 147.365 137.963C147.779 137.749 148.098 137.447 148.322 137.058C148.553 136.669 148.668 136.212 148.668 135.688C148.668 135.156 148.553 134.7 148.322 134.319C148.098 133.93 147.779 133.632 147.365 133.425C146.958 133.211 146.475 133.104 145.917 133.104H144.147V138.273Z" fill="white"/>
<path d="M153.874 134.878H157.905V136.379H153.874V134.878ZM154.018 138.309H158.575V139.857H152.092V131.52H158.42V133.068H154.018V138.309Z" fill="white"/>
<path d="M160.117 139.857V131.52H163.742C164.491 131.52 165.137 131.643 165.68 131.889C166.222 132.127 166.641 132.473 166.936 132.925C167.231 133.378 167.378 133.918 167.378 134.545C167.378 135.164 167.231 135.7 166.936 136.153C166.641 136.598 166.222 136.939 165.68 137.177C165.137 137.415 164.491 137.535 163.742 137.535H161.194L162.055 136.689V139.857H160.117ZM165.44 139.857L163.347 136.832H165.417L167.534 139.857H165.44ZM162.055 136.903L161.194 135.998H163.634C164.232 135.998 164.679 135.871 164.974 135.617C165.269 135.355 165.417 134.998 165.417 134.545C165.417 134.084 165.269 133.727 164.974 133.473C164.679 133.219 164.232 133.092 163.634 133.092H161.194L162.055 132.175V136.903Z" fill="white"/>
<path d="M168.914 139.857V131.52H170.517L174.081 137.404H173.232L176.737 131.52H178.328L178.352 139.857H176.534L176.522 134.295H176.857L174.058 138.976H173.184L170.325 134.295H170.732V139.857H168.914Z" fill="white"/>
<path d="M179.238 139.857L182.97 131.52H184.884L188.629 139.857H186.595L183.533 132.496H184.298L181.224 139.857H179.238ZM181.104 138.07L181.619 136.606H185.925L186.451 138.07H181.104Z" fill="white"/>
</svg>
