<svg width="20" height="20" viewBox="0 0 20 20" fill="none" xmlns="http://www.w3.org/2000/svg">
<path d="M19.3335 1.47666C19.0935 1.24017 18.7903 1.07791 18.4604 1.00933C18.1305 0.940749 17.7879 0.968754 17.4735 1.08999C14.0104 2.65273 10.873 4.85428 8.22547 7.57932C7.88014 8.08399 6.74947 8.75532 7.34014 9.36332C7.98014 9.80799 8.3168 8.84332 8.74547 8.49266C9.66413 8.57496 10.5247 8.97717 11.1772 9.62913C11.8296 10.2811 12.2325 11.1414 12.3155 12.06C11.5601 12.77 10.4701 13.5533 9.76214 14.076C9.2148 11.538 6.31614 10.1427 3.98814 11.2813C2.81214 11.8393 2.38814 12.8813 1.90214 14.0887C1.51275 15.1698 0.964273 16.1867 0.274804 17.106C0.193005 17.2101 0.155841 17.3424 0.171463 17.4739C0.187086 17.6054 0.254219 17.7253 0.358137 17.8073C2.1108 18.5373 4.02147 18.8787 5.91214 19.0187C8.01014 19.1513 9.81414 17.2633 9.8668 15.2147C13.9481 12.6247 17.7281 7.87265 19.7168 3.32266C19.8375 3.01073 19.8656 2.67057 19.7976 2.34308C19.7296 2.01559 19.5684 1.71472 19.3335 1.47666ZM8.8668 15.2633C8.31214 19.146 4.44014 18.05 1.4728 17.1587C2.6328 15.748 2.88147 12.9907 4.41614 12.1847C6.5168 11.1267 9.10947 12.934 8.8668 15.2633ZM18.7861 2.95866C17.4122 6.01039 15.519 8.80047 13.1908 11.2047C12.7561 9.47266 11.3315 8.04932 9.60014 7.61466C12.0018 5.28757 14.7892 3.39504 17.8381 2.02132C18.4021 1.77266 19.0301 2.39132 18.7861 2.95866Z" fill="#BDC1DF"/>
</svg>
