<svg width="61" height="60" viewBox="0 0 61 60" fill="none" xmlns="http://www.w3.org/2000/svg">
<path d="M15.2497 49.0276C18.0746 51.8525 24.1188 53.4651 30.6167 53.8592C21.9746 54.3908 12.5263 52.7782 8.77556 49.0276C2.19396 42.446 2.19396 18.4009 8.77556 11.8193C12.5263 8.06857 21.9746 6.45596 30.6167 6.98752C24.1187 7.38174 18.0746 8.99424 15.2497 11.8193C8.67407 18.4009 8.67407 42.4459 15.2497 49.0276Z" fill="#6A449A"/>
<path d="M52.4521 49.0276C48.7014 52.7783 39.253 54.3908 30.6169 53.8592C24.1188 53.465 18.0748 51.8525 15.2498 49.0276C8.67421 42.446 8.67421 18.4009 15.2498 11.8193C18.0748 8.99424 24.1189 7.38174 30.6169 6.98752C39.253 6.45596 48.7015 8.06857 52.4521 11.8193C59.0277 18.4009 59.0277 42.4459 52.4521 49.0276Z" fill="white"/>
<path d="M33.851 37.3459C32.8843 37.3459 32.1006 36.5621 32.1006 35.5954V31.0666C32.1006 30.0999 32.8843 29.3162 33.851 29.3162C36.577 29.3162 38.7947 27.0983 38.7947 24.3723C38.7947 21.6462 36.577 19.4286 33.851 19.4286C31.125 19.4286 28.9071 21.6462 28.9071 24.3723C28.9071 25.3389 28.1234 26.1227 27.1567 26.1227C26.19 26.1227 25.4062 25.3389 25.4062 24.3723C25.4062 19.7159 29.1945 15.9277 33.851 15.9277C38.5073 15.9277 42.2955 19.7159 42.2955 24.3723C42.2955 28.4288 39.4206 31.8264 35.6014 32.6346V35.5954C35.6014 36.5621 34.8177 37.3459 33.851 37.3459Z" fill="#6A449A"/>
<path d="M33.851 44.9185C32.8843 44.9185 32.1006 44.1347 32.1006 43.1681V41.9589C32.1006 40.9922 32.8843 40.2085 33.851 40.2085C34.8177 40.2085 35.6014 40.9922 35.6014 41.9589V43.1681C35.6014 44.1347 34.8177 44.9185 33.851 44.9185Z" fill="#6A449A"/>
<path d="M8.39673 49.4059C11.9937 53.0029 20.0379 54.4921 27.3987 54.4921C32.93 54.4921 47.0668 55.1706 52.8307 49.4059C59.5661 42.6643 59.5661 18.1824 52.8307 11.4407C48.6996 7.30902 38.7029 5.95879 30.6169 6.45097C22.526 5.95879 12.5278 7.30949 8.39673 11.4406C1.65552 18.1824 1.65552 42.6643 8.39673 49.4059ZM52.0736 12.1978C58.3697 18.4997 58.3697 42.3469 52.0736 48.6488C48.7485 51.9734 39.9414 53.8961 30.649 53.3246C23.7525 52.9062 18.1371 51.1582 15.6284 48.6488C9.33165 42.3463 9.33165 18.5002 15.6284 12.1978C18.8586 8.96687 26.0691 7.79945 30.6496 7.5216C37.0193 7.13125 47.8149 7.93984 52.0736 12.1978ZM9.15388 12.1978C11.4954 9.85679 16.5565 8.21078 22.5922 7.64137C19.9754 8.31379 16.7905 9.52105 14.8712 11.4407C8.13528 18.1824 8.13528 42.6643 14.8712 49.4059C16.7782 51.3136 19.9679 52.5313 22.5933 53.2053C16.5586 52.6359 11.4954 50.9897 9.15388 48.6488C2.85188 42.3463 2.85188 18.5003 9.15388 12.1978Z" fill="#0F0102"/>
<path d="M24.8704 24.3723C24.8704 25.633 25.8958 26.6584 27.1565 26.6584C28.4167 26.6584 29.4421 25.633 29.4421 24.3723C29.4421 21.9418 31.4196 19.9643 33.8506 19.9643C36.2815 19.9643 38.259 21.9418 38.259 24.3723C38.259 26.8032 36.2815 28.7808 33.8506 28.7808C32.5903 28.7808 31.5649 29.8062 31.5649 31.0669V35.5951C31.5649 36.8558 32.5903 37.8812 33.8506 37.8812C35.1113 37.8812 36.1367 36.8558 36.1367 35.5951V33.0575C40.0406 32.029 42.8308 28.4446 42.8308 24.3723C42.8308 19.421 38.8023 15.3926 33.8506 15.3926C28.8988 15.3926 24.8704 19.421 24.8704 24.3723ZM33.8506 16.4636C38.212 16.4636 41.7599 20.0114 41.7599 24.3723C41.7599 28.088 39.1234 31.3425 35.4904 32.1107C35.243 32.1629 35.0658 32.3815 35.0658 32.6346V35.5952C35.0658 36.2651 34.5204 36.8105 33.8506 36.8105C33.1807 36.8105 32.6359 36.2651 32.6359 35.5952V31.067C32.6359 30.3971 33.1807 29.8518 33.8506 29.8518C36.8719 29.8518 39.33 27.3936 39.33 24.3723C39.33 21.351 36.8719 18.8934 33.8506 18.8934C30.8292 18.8934 28.3711 21.3511 28.3711 24.3723C28.3711 25.0421 27.8263 25.5875 27.1565 25.5875C26.4866 25.5875 25.9412 25.0421 25.9412 24.3723C25.9412 20.0114 29.4891 16.4636 33.8506 16.4636Z" fill="#0F0102"/>
<path d="M33.8506 39.6733C32.5903 39.6733 31.5649 40.6987 31.5649 41.959V43.1685C31.5649 44.4287 32.5903 45.4541 33.8506 45.4541C35.1113 45.4541 36.1367 44.4287 36.1367 43.1685V41.959C36.1367 40.6987 35.1113 39.6733 33.8506 39.6733ZM35.0658 43.1685C35.0658 43.8383 34.5204 44.3831 33.8506 44.3831C33.1807 44.3831 32.6359 43.8383 32.6359 43.1685V41.959C32.6359 41.2891 33.1807 40.7443 33.8506 40.7443C34.5204 40.7443 35.0658 41.2891 35.0658 41.959V43.1685Z" fill="#0F0102"/>
</svg>
