<svg width="57" height="72" viewBox="0 0 57 72" fill="none" xmlns="http://www.w3.org/2000/svg">
<path d="M22.3704 19.0561C20.4393 20.7461 17.7101 21.7602 15.2231 20.7162C14.1443 20.2638 12.703 18.9645 13.1648 17.6512C13.428 16.9048 14.4928 16.697 15.0645 16.2059C15.5542 15.7851 15.7825 15.2094 16.1712 14.7077L14.4615 15.1285C13.6667 15.0844 12.8459 15.2781 12.0599 15.3186C11.8891 15.3274 11.4063 15.3644 11.3662 15.1672C11.4865 14.6707 11.8542 14.2324 12.2045 13.8785C13.6981 12.3751 15.6117 11.2624 17.0548 9.61462C18.327 8.16223 19.0172 6.33661 20.5701 5.12892C22.2484 3.82264 24.4914 2.91423 26.534 2.36848C27.8306 2.02167 29.1674 1.76992 30.5146 1.76288C30.1835 2.46531 29.8785 3.20647 29.9604 4.00397C31.3477 3.87545 31.6091 2.67129 32.3271 1.76816C34.361 -0.788061 38.861 -0.589126 40.311 2.47235C41.8325 5.68699 39.5128 9.24492 36.1178 9.52132L34.1257 9.28365C37.749 12.118 36.7417 17.8114 33.5715 20.5947C30.6941 23.121 27.1178 22.0964 23.742 23.1879C22.2275 23.6773 21.3718 24.3974 20.0925 25.2019C17.6595 26.7371 14.4318 26.2565 13.5587 23.2355C13.4663 22.9133 13.1334 21.4697 13.7051 21.5859C16.6522 23.8622 21.2602 22.7566 22.3739 19.049L22.3704 19.0561ZM31.0671 7.93336C33.4199 7.57775 36.2694 8.69037 37.9547 6.43343C40.3319 3.24872 35.4729 0.652013 33.7946 3.82088C33.1916 4.95815 33.4147 6.03909 32.3149 6.99855C31.9211 7.34184 31.3877 7.51789 31.0671 7.93336ZM28.1984 8.59002C26.0443 9.06535 24.4705 7.20805 22.339 8.51256C20.6903 9.52132 20.2929 11.5371 20.3348 13.3556L22.1003 11.0741C22.9995 10.2378 23.7472 10.7079 24.779 10.4156C25.124 10.3171 25.4273 9.95264 25.7271 9.78539C26.3336 9.44914 27.1126 9.27485 27.7975 8.88578C27.916 8.81889 28.1688 8.7203 28.1984 8.59002Z" fill="url(#paint0_linear_1959_258)"/>
<path d="M25.9787 59.5225C25.414 58.7989 24.9557 57.8183 24.5757 56.9698C22.4948 52.3221 22.7597 48.6867 25.3164 44.319C31.1235 34.4022 43.5899 31.9604 45.0399 18.8237C45.4251 15.3309 44.3411 10.9315 42.654 7.86997C42.6087 7.78723 42.4501 7.63407 42.5878 7.56189C43.6492 8.65339 44.6304 9.75017 45.392 11.0846C48.7591 16.9769 48.6424 24.7847 45.1166 30.5819C40.0206 38.9636 27.556 43.1623 25.9107 53.7041C25.6092 55.6406 25.7469 57.5895 25.9804 59.5225H25.9787Z" fill="url(#paint1_linear_1959_258)"/>
<path d="M34.5512 49.2078L34.3072 49.3786C31.8533 52.1338 29.4656 55.2586 28.9393 59.0542C28.765 59.0049 28.7197 58.7637 28.6848 58.6106C27.8221 54.7164 29.1362 50.4543 31.4002 47.2889C36.7977 39.747 45.7366 37.1063 48.7134 27.2071C49.5081 24.5646 49.4715 22.8235 49.5708 20.13C49.5743 20.0173 49.5011 19.7814 49.6632 19.8043C50.0902 21.1317 50.5032 22.4855 50.6723 23.8798C51.4078 29.9447 49.6841 35.1944 45.7349 39.7118C42.4375 43.4845 38.0211 45.6534 34.5529 49.2078H34.5512Z" fill="url(#paint2_linear_1959_258)"/>
<path d="M14.0457 31.6717C15.6143 31.2545 15.2326 29.9728 14.3228 29.0556C16.3358 28.6454 18.8245 28.825 20.4733 30.177C21.0048 30.6136 21.5155 31.3777 22.0627 31.7492C22.6901 32.1734 23.6208 32.2791 24.3144 32.559C24.6055 32.6769 25.0708 32.8899 25.0551 33.2579L22.7424 33.7262C22.5193 33.9304 23.7898 34.587 23.9101 34.6487C24.1367 34.7649 24.4434 34.7684 24.5759 35.0043C25.1667 36.0623 23.4936 37.2436 22.5978 37.3633C21.7211 37.4795 20.9787 37.2806 20.1543 37.0905C20.2763 37.682 21.0222 38.1626 21.5608 38.3334C22.3956 38.5992 23.6243 38.3351 24.3162 37.7894C24.4521 37.682 24.4974 37.395 24.6403 37.4654C25.1998 37.7366 24.656 39.0481 24.3563 39.4196C23.3977 40.6061 22.0906 40.24 20.7661 40.372C19.7134 40.4776 18.7008 41.0586 17.6621 41.254C16.1354 41.541 14.539 41.2012 13.3155 40.2135C12.0136 39.1608 11.4123 36.9883 12.0136 35.4092C8.64821 36.7648 5.59653 31.853 8.5053 29.575C10.6281 27.9131 13.3608 29.288 14.0492 31.6699L14.0457 31.6717ZM12.8432 34.1012C12.5905 33.2121 12.7752 32.397 12.3691 31.5432C11.8899 30.5344 10.8058 30.1858 9.81765 30.7175C8.69353 31.3214 8.88524 32.9744 9.74619 33.7262C10.703 34.5606 11.7104 34.279 12.8432 34.1012ZM20.7992 34.0079C20.4401 33.3336 19.6768 32.1189 18.8821 31.9745C17.2281 31.6735 16.3097 32.9885 16.0831 34.4761C16.6582 33.9779 17.6691 33.2033 18.4498 33.1734C19.2969 33.1417 19.9661 34.0184 20.8009 34.0079H20.7992Z" fill="url(#paint3_linear_1959_258)"/>
<path d="M27.9226 37.7472C27.9784 37.4549 28.0952 37.1468 28.2119 36.8722C31.8405 28.4413 40.6923 24.4256 39.8453 13.7853C39.7634 12.7554 39.4392 11.7625 39.0227 10.8312L39.9411 10.4016L41.1036 9.24146C41.1873 9.31363 41.2674 9.3911 41.3232 9.48792C43.6673 13.5124 43.7283 19.1847 41.907 23.4169C39.4444 29.1455 34.1724 32.0767 29.7265 35.9708C29.0921 36.5254 28.4995 37.1345 27.9209 37.7454L27.9226 37.7472Z" fill="url(#paint4_linear_1959_258)"/>
<path d="M20.2424 54.5685C20.0751 54.6054 20.0612 54.5174 19.981 54.4135C19.5 53.7868 19.1654 53.028 18.5693 52.4753C15.5874 49.7078 11.9152 48.4085 9.74891 44.5619C8.45747 42.268 8.15074 39.3878 8.58644 36.8123L10.1532 37.2436C9.75936 38.9565 10.3728 40.6959 11.1606 42.2028C12.0459 43.9 13.3461 45.4333 14.8327 46.6234C16.0945 47.6339 17.7049 48.4156 18.9005 49.4314C19.3362 49.8011 20.2773 50.6901 20.3383 51.25C20.4533 52.2728 20.2895 53.5368 20.2424 54.5702V54.5685Z" fill="url(#paint5_linear_1959_258)"/>
<path d="M17.5608 54.6618C17.397 54.6742 17.2384 54.6618 17.0763 54.639C15.9661 54.4717 13.866 52.9436 12.8134 52.3098C11.1176 51.287 9.69896 50.7254 8.40404 49.1005C5.57195 45.5461 5.77761 40.9829 7.01501 36.8141C7.17709 36.793 7.10215 37.0271 7.10738 37.1398C7.15967 38.4848 7.00804 39.8984 7.22241 41.2294C7.94568 45.7256 10.7447 48.4755 14.0438 51.2536C15.0947 52.1391 16.1927 52.7711 17.0972 53.8696C17.1844 53.977 17.6515 54.5756 17.5608 54.6618Z" fill="url(#paint6_linear_1959_258)"/>
<path d="M29.3088 31.5785C29.1467 31.5961 29.2077 31.2563 29.2181 31.1595C29.4255 29.1736 30.4974 26.5699 31.7609 25.0365C33.3225 23.1405 35.7032 22.0014 36.9719 19.8325L37.8224 18.1213C37.3885 19.5174 36.9772 20.9381 36.301 22.2373C34.8771 24.9714 32.336 27.1033 30.5165 29.5715C30.0564 30.1947 29.551 30.8215 29.3105 31.5767L29.3088 31.5785Z" fill="url(#paint7_linear_1959_258)"/>
<path d="M18.4612 45.539C18.9579 45.9791 19.4267 46.4491 19.8607 46.9526C20.2894 47.4491 20.8018 48.0001 20.882 48.6832C20.8366 48.7078 20.8018 48.6955 20.753 48.6779C20.3452 48.5353 19.2629 47.8874 18.8254 47.6339C17.6769 46.965 16.3419 46.1217 15.2945 45.3119C13.4715 43.9035 11.8855 41.981 11.2686 39.7083L12.1016 40.967C12.7604 41.9599 13.9438 42.4405 14.9198 43.0197C16.0979 43.7186 17.2726 44.5056 18.3218 45.4157C18.3688 45.4562 18.4141 45.4967 18.4594 45.5372L18.4612 45.539Z" fill="url(#paint8_linear_1959_258)"/>
<path d="M2.9231 63.1949C3.10087 63.1949 3.25075 63.1333 3.37101 63.0118C3.49126 62.8903 3.55226 62.7389 3.55226 62.5594C3.55226 62.3798 3.49126 62.2196 3.37101 62.1016C3.25075 61.9837 3.10087 61.9238 2.9231 61.9238C2.74534 61.9238 2.59545 61.9837 2.4752 62.1016C2.35494 62.2196 2.29395 62.3745 2.29395 62.5594C2.29395 62.7442 2.35494 62.8903 2.4752 63.0118C2.59545 63.1333 2.74534 63.1949 2.9231 63.1949Z" fill="url(#paint9_linear_1959_258)"/>
<path d="M1.6106 63.1949C1.78837 63.1949 1.93825 63.1333 2.05851 63.0118C2.17876 62.8903 2.23976 62.7389 2.23976 62.5594C2.23976 62.3798 2.17876 62.2196 2.05851 62.1016C1.93825 61.9837 1.78837 61.9238 1.6106 61.9238C1.43284 61.9238 1.28295 61.9837 1.1627 62.1016C1.04244 62.2196 0.981445 62.3745 0.981445 62.5594C0.981445 62.7442 1.04244 62.8903 1.1627 63.0118C1.28295 63.1333 1.43284 63.1949 1.6106 63.1949Z" fill="url(#paint10_linear_1959_258)"/>
<path d="M2.71545 64.2177L2.69802 64.2019H1.84578L1.82836 64.2177C0.610123 65.2476 -0.00683594 66.281 -0.00683594 67.2933C-0.00683594 67.7017 0.0890193 68.0714 0.278987 68.3919C0.468954 68.7123 0.739092 68.9658 1.08068 69.1453C1.42054 69.3231 1.81964 69.4147 2.2658 69.4147C2.71197 69.4147 3.11804 69.3249 3.45615 69.1453C3.79426 68.9658 4.06265 68.7123 4.25436 68.3936C4.44433 68.0732 4.54019 67.7 4.54019 67.2863C4.54019 66.274 3.92671 65.2423 2.71371 64.2195L2.71545 64.2177ZM2.33377 65.4078C2.72417 65.7687 3.01522 66.1103 3.19996 66.4219C3.3847 66.7335 3.47707 67.024 3.47707 67.2845C3.47707 67.4694 3.43001 67.6331 3.3359 67.7704C3.24178 67.9095 3.1041 68.0169 2.92982 68.0926C2.75031 68.17 2.52723 68.2088 2.26755 68.2088C2.00787 68.2088 1.79001 68.17 1.60876 68.0926C1.43099 68.0169 1.29157 67.9095 1.19745 67.7739C1.10334 67.6401 1.05629 67.4782 1.05629 67.2933C1.05629 67.0275 1.1504 66.7352 1.33339 66.4254C1.51813 66.1173 1.81267 65.774 2.20829 65.4078H2.33377Z" fill="url(#paint11_linear_1959_258)"/>
<path d="M13.2749 65.5928C13.1285 65.3516 12.9333 65.1544 12.6946 65.01C12.4541 64.8639 12.1613 64.79 11.8249 64.79C11.5199 64.79 11.2428 64.8534 11.0006 64.9801C10.76 65.1051 10.5404 65.2706 10.3453 65.473C10.1518 65.6737 9.97229 65.9008 9.81195 66.1455C9.65161 66.3867 9.49998 66.6367 9.35707 66.8867C9.21765 67.1385 9.07125 67.3691 8.92311 67.5698C8.77846 67.767 8.60766 67.9254 8.41943 68.0381C8.23295 68.149 7.99593 68.2071 7.71359 68.2071H6.67836V61.6246H5.61523V69.413H7.77808C8.14755 69.4042 8.47172 69.3338 8.7436 69.2C8.98934 69.0803 9.21939 68.906 9.43376 68.6789C9.52438 68.7528 9.6185 68.825 9.71435 68.8919C9.95486 69.0591 10.2337 69.1982 10.5439 69.3056C10.8524 69.413 11.2167 69.4869 11.6262 69.5274C12.0288 69.5679 12.5098 69.5732 13.0571 69.5433L13.0972 69.5697L13.1146 69.5398H13.1442L13.1425 69.4922C13.3377 69.1437 13.4788 68.7651 13.566 68.3655C13.6531 67.9606 13.6967 67.5944 13.6967 67.274C13.6967 66.9783 13.6636 66.6807 13.5974 66.392C13.5311 66.0998 13.4248 65.8322 13.2802 65.5928H13.2749ZM11.5774 68.3109C11.1836 68.2616 10.842 68.1683 10.5631 68.0328C10.4063 67.9553 10.2564 67.862 10.1152 67.7546C10.1675 67.6719 10.2198 67.5839 10.2721 67.4941C10.5038 67.0997 10.7078 66.7899 10.8768 66.5716C11.0424 66.3586 11.2027 66.2072 11.3526 66.1209C11.499 66.0364 11.6576 65.9941 11.8249 65.9941C12.0881 65.9941 12.2815 66.091 12.4175 66.2917C12.5569 66.4976 12.6284 66.8269 12.6284 67.2723C12.6284 67.5575 12.5918 67.8444 12.5203 68.1243C12.4994 68.2018 12.4767 68.2793 12.4523 68.355C12.1282 68.3585 11.8354 68.3409 11.5792 68.3092L11.5774 68.3109Z" fill="url(#paint12_linear_1959_258)"/>
<path d="M34.6435 68.207H33.3225C33.0715 68.207 32.8798 68.1876 32.7543 68.1489C32.641 68.1137 32.5678 68.0521 32.533 67.9588C32.4929 67.8549 32.4737 67.7 32.4737 67.4975V61.6245H31.4106V67.4975C31.4106 67.7 31.3897 67.8549 31.3514 67.9588C31.3148 68.0521 31.2433 68.1137 31.1335 68.1489C31.0115 68.1876 30.818 68.207 30.5619 68.207H29.8961C29.6451 68.207 29.4534 68.1876 29.3279 68.1489C29.2147 68.1137 29.1415 68.0521 29.1066 67.9588C29.0665 67.8549 29.0473 67.7 29.0473 67.4975V67.207C29.0421 66.9324 29.0107 66.6578 28.9497 66.3902C28.8835 66.0979 28.7772 65.8286 28.6326 65.5909C28.4862 65.3497 28.291 65.1543 28.0522 65.0082C27.8117 64.8621 27.5189 64.7881 27.1825 64.7881C26.8775 64.7881 26.6004 64.8515 26.3582 64.9783C26.1177 65.1033 25.8981 65.2687 25.7029 65.4712C25.5094 65.6719 25.3299 65.899 25.1696 66.1437C25.0092 66.3849 24.8576 66.6349 24.7147 66.8849C24.5753 67.1366 24.4289 67.3672 24.2807 67.5679C24.1361 67.7651 23.9653 67.9235 23.777 68.0362C23.5906 68.1471 23.3535 68.2052 23.0712 68.2052H22.036V66.8989C22.036 66.524 21.968 66.1754 21.8321 65.8603C21.6961 65.5451 21.5009 65.2687 21.2517 65.0399C21.0025 64.811 20.7045 64.6314 20.3663 64.5082C20.0282 64.385 19.65 64.3216 19.244 64.3216C18.8884 64.3216 18.5346 64.3709 18.1913 64.4695C17.848 64.5681 17.5186 64.7159 17.2136 64.9114L17.1665 64.9413L17.5953 65.9043L17.6545 65.8761C17.8602 65.7793 18.1024 65.6948 18.3778 65.6279C18.6514 65.561 18.9372 65.5275 19.2265 65.5275C19.5908 65.5275 19.9097 65.5874 20.1711 65.7036C20.4291 65.8198 20.6313 65.9817 20.7672 66.1842C20.9031 66.3866 20.9728 66.6278 20.9728 66.8989V68.2052H15.9274V61.6228H14.8643V69.4111H23.1374C23.5069 69.4023 23.8311 69.3319 24.103 69.1981C24.3487 69.0784 24.5787 68.9041 24.7931 68.677C24.8837 68.751 24.9779 68.8232 25.0737 68.89C25.3142 69.0573 25.5931 69.1964 25.9033 69.3038C26.2118 69.4112 26.576 69.4851 26.9856 69.5256C27.3882 69.5661 27.8692 69.5714 28.4164 69.5414L28.4565 69.5678L28.4722 69.5379H28.5018L28.5001 69.4904C28.5733 69.3601 28.6395 69.2245 28.697 69.0837C28.7563 69.1277 28.8173 69.1664 28.8853 69.1999C29.1519 69.3372 29.4952 69.4076 29.9031 69.4076H30.5688C31.008 69.4076 31.3723 69.3372 31.6511 69.1999C31.7627 69.1453 31.862 69.0784 31.9509 69.001C32.0398 69.0784 32.1391 69.1453 32.2506 69.1999C32.5295 69.3372 32.8937 69.4076 33.3329 69.4076H35.7189V61.6193H34.6557V68.2017L34.6435 68.207ZM26.9298 68.3108C26.5359 68.2616 26.1943 68.1683 25.9155 68.0327C25.7586 67.9552 25.6088 67.8619 25.4676 67.7545C25.5199 67.6718 25.5722 67.5838 25.6244 67.494C25.8562 67.0996 26.0601 66.7898 26.2292 66.5715C26.3948 66.3585 26.5551 66.2071 26.705 66.1208C26.8514 66.0363 27.01 65.9941 27.1773 65.9941C27.4405 65.9941 27.6339 66.0909 27.7699 66.2916C27.9093 66.4976 27.9807 66.8268 27.9807 67.2722C27.9807 67.5574 27.9441 67.8443 27.8727 68.1242C27.8518 68.2017 27.8291 68.2792 27.8047 68.3549C27.4788 68.3584 27.1878 68.3408 26.9316 68.3091L26.9298 68.3108Z" fill="url(#paint13_linear_1959_258)"/>
<path d="M47.9623 70.5326C47.7723 70.5326 47.6102 70.5995 47.4778 70.728C47.3453 70.8583 47.2773 71.0255 47.2773 71.2227C47.2773 71.4199 47.3436 71.5783 47.476 71.7121C47.6085 71.8459 47.7723 71.9128 47.9605 71.9128C48.1488 71.9128 48.3213 71.8441 48.4503 71.7103C48.5792 71.5765 48.6437 71.4111 48.6437 71.2209C48.6437 71.0308 48.5775 70.8565 48.4485 70.7262C48.3196 70.596 48.154 70.5291 47.9588 70.5291L47.9623 70.5326Z" fill="url(#paint14_linear_1959_258)"/>
<path d="M53.9807 62.6157C54.1585 62.6157 54.3084 62.5558 54.4286 62.4379C54.5489 62.3199 54.6099 62.165 54.6099 61.9801C54.6099 61.7953 54.5489 61.6492 54.4286 61.5277C54.3084 61.4062 54.1585 61.3446 53.9807 61.3446C53.803 61.3446 53.6618 61.4062 53.538 61.5259C53.4143 61.6474 53.3516 61.8006 53.3516 61.9801C53.3516 62.1597 53.4143 62.3199 53.538 62.4379C53.6618 62.5558 53.8099 62.6139 53.9807 62.6139V62.6157Z" fill="url(#paint15_linear_1959_258)"/>
<path d="M54.0068 63.128C54.0068 63.3146 54.0678 63.4677 54.1881 63.5857C54.3083 63.7036 54.4582 63.7635 54.636 63.7635C54.8138 63.7635 54.9636 63.7036 55.0839 63.5857C55.2042 63.4677 55.2652 63.3128 55.2652 63.128C55.2652 62.9431 55.2042 62.797 55.0839 62.6755C54.9636 62.554 54.8138 62.4924 54.636 62.4924C54.4582 62.4924 54.3083 62.554 54.1881 62.6755C54.0678 62.797 54.0068 62.9484 54.0068 63.128Z" fill="url(#paint16_linear_1959_258)"/>
<path d="M55.9312 64.7812V67.4976C55.9312 67.7564 55.858 67.9483 55.7151 68.068C55.5652 68.193 55.4031 68.2528 55.2201 68.2528C55.072 68.2528 54.929 68.2124 54.7966 68.1314C54.6694 68.0557 54.5822 67.95 54.5299 67.811C54.5404 67.7106 54.5456 67.6067 54.5456 67.4976V65.2371H53.4825V67.4976C53.4825 67.7564 53.4093 67.9483 53.2664 68.068C53.1165 68.193 52.9544 68.2528 52.7714 68.2528C52.6233 68.2528 52.4804 68.2124 52.3479 68.1314C52.2224 68.0557 52.1353 67.9518 52.0848 67.8162C52.0935 67.7141 52.0987 67.6085 52.0987 67.4976V65.7054H51.0356V67.4976C51.0356 67.7001 51.0147 67.855 50.9746 67.9588C50.938 68.0521 50.8683 68.1138 50.7567 68.149C50.6347 68.1877 50.4413 68.2071 50.1851 68.2071H49.3433C49.0923 68.2071 48.9006 68.1877 48.7751 68.149C48.6619 68.1138 48.5887 68.0521 48.5538 67.9588C48.5137 67.855 48.4946 67.7001 48.4946 67.4976V64.7812H47.4314V67.4976C47.4314 67.7001 47.4105 67.855 47.3722 67.9588C47.3356 68.0521 47.2641 68.1138 47.1543 68.149C47.0323 68.1877 46.8389 68.2071 46.5827 68.2071H45.7322C45.4812 68.2071 45.2895 68.1877 45.164 68.149C45.0507 68.1138 44.9793 68.0521 44.9427 67.9588C44.9026 67.855 44.8834 67.7001 44.8834 67.4976V61.6246H43.8203V67.9923C43.8203 68.4412 43.7436 68.8303 43.5902 69.1489C43.4404 69.4658 43.2225 69.7105 42.9454 69.8778C42.6666 70.045 42.3302 70.1295 41.9433 70.1295C41.5564 70.1295 41.227 70.045 40.9464 69.8778C40.6658 69.7105 40.4479 69.4658 40.2981 69.1489C40.1464 68.8303 40.068 68.4395 40.068 67.9923C40.068 67.7599 40.0854 67.5222 40.1185 67.2881C40.1517 67.0522 40.1987 66.8004 40.2615 66.5434L40.2771 66.4765L39.2646 66.2846L39.2489 66.3427C39.1739 66.6015 39.1147 66.8744 39.0711 67.1543C39.0275 67.4377 39.0049 67.7194 39.0049 67.9958C39.0049 68.4606 39.0711 68.9007 39.2018 69.3003C39.3325 69.7017 39.526 70.0591 39.777 70.3637C40.0279 70.6682 40.3381 70.9094 40.7007 71.0819C41.0632 71.2527 41.4797 71.3407 41.9433 71.3407C42.4069 71.3407 42.8251 71.2545 43.1859 71.0819C43.5467 70.9112 43.8586 70.6682 44.1096 70.3637C44.3606 70.0591 44.554 69.7017 44.6847 69.3003C44.6917 69.2792 44.6987 69.2563 44.7057 69.2334C44.9758 69.3531 45.3209 69.4148 45.7322 69.4148H46.5827C47.0219 69.4148 47.3861 69.3443 47.665 69.207C47.7765 69.1524 47.8758 69.0856 47.9647 69.0081C48.0536 69.0856 48.153 69.1524 48.2645 69.207C48.5433 69.3443 48.9076 69.4148 49.3468 69.4148H50.1886C50.6278 69.4148 50.992 69.3443 51.2709 69.207C51.4364 69.1243 51.5793 69.0169 51.6944 68.8831C51.7066 68.8972 51.7188 68.9095 51.731 68.9236C51.8965 69.0944 52.083 69.2211 52.2852 69.2986C52.747 69.4764 53.2542 69.4517 53.6934 69.2053C53.852 69.1172 53.9932 68.9993 54.1152 68.8532C54.1361 68.8778 54.157 68.9007 54.1796 68.9236C54.3452 69.0944 54.5317 69.2211 54.7339 69.2986C54.9343 69.376 55.1417 69.4148 55.3526 69.4148C55.6279 69.4148 55.8928 69.3443 56.1421 69.2053C56.3913 69.0662 56.5987 68.8514 56.759 68.568C56.9176 68.2863 56.9995 67.9254 56.9995 67.4994V64.7829H55.9364L55.9312 64.7812Z" fill="url(#paint17_linear_1959_258)"/>
<path d="M53.3235 63.7635C53.5013 63.7635 53.6511 63.7036 53.7714 63.5857C53.8917 63.4677 53.9526 63.3128 53.9526 63.128C53.9526 62.9431 53.8917 62.797 53.7714 62.6755C53.6511 62.554 53.5013 62.4924 53.3235 62.4924C53.1457 62.4924 52.9958 62.554 52.8756 62.6755C52.7553 62.797 52.6943 62.9484 52.6943 63.128C52.6943 63.3075 52.7553 63.4677 52.8756 63.5857C52.9958 63.7036 53.1457 63.7635 53.3235 63.7635Z" fill="url(#paint18_linear_1959_258)"/>
<defs>
<linearGradient id="paint0_linear_1959_258" x1="26.0767" y1="0" x2="26.0767" y2="26.0518" gradientUnits="userSpaceOnUse">
<stop stop-color="#CC966A"/>
<stop offset="1" stop-color="#C19877"/>
</linearGradient>
<linearGradient id="paint1_linear_1959_258" x1="35.5139" y1="7.56189" x2="35.5139" y2="59.5225" gradientUnits="userSpaceOnUse">
<stop stop-color="#CC966A"/>
<stop offset="1" stop-color="#C19877"/>
</linearGradient>
<linearGradient id="paint2_linear_1959_258" x1="39.628" y1="19.8027" x2="39.628" y2="59.0542" gradientUnits="userSpaceOnUse">
<stop stop-color="#CC966A"/>
<stop offset="1" stop-color="#C19877"/>
</linearGradient>
<linearGradient id="paint3_linear_1959_258" x1="16.1977" y1="28.8442" x2="16.1977" y2="41.3523" gradientUnits="userSpaceOnUse">
<stop stop-color="#CC966A"/>
<stop offset="1" stop-color="#C19877"/>
</linearGradient>
<linearGradient id="paint4_linear_1959_258" x1="35.5537" y1="9.24146" x2="35.5537" y2="37.7472" gradientUnits="userSpaceOnUse">
<stop stop-color="#CC966A"/>
<stop offset="1" stop-color="#C19877"/>
</linearGradient>
<linearGradient id="paint5_linear_1959_258" x1="14.3894" y1="36.8123" x2="14.3894" y2="54.5771" gradientUnits="userSpaceOnUse">
<stop stop-color="#CC966A"/>
<stop offset="1" stop-color="#C19877"/>
</linearGradient>
<linearGradient id="paint6_linear_1959_258" x1="11.8614" y1="36.8127" x2="11.8614" y2="54.6667" gradientUnits="userSpaceOnUse">
<stop stop-color="#CC966A"/>
<stop offset="1" stop-color="#C19877"/>
</linearGradient>
<linearGradient id="paint7_linear_1959_258" x1="33.5103" y1="18.1213" x2="33.5103" y2="31.5791" gradientUnits="userSpaceOnUse">
<stop stop-color="#CC966A"/>
<stop offset="1" stop-color="#C19877"/>
</linearGradient>
<linearGradient id="paint8_linear_1959_258" x1="16.0753" y1="39.7083" x2="16.0753" y2="48.697" gradientUnits="userSpaceOnUse">
<stop stop-color="#CC966A"/>
<stop offset="1" stop-color="#C19877"/>
</linearGradient>
<linearGradient id="paint9_linear_1959_258" x1="2.9231" y1="61.9238" x2="2.9231" y2="63.1949" gradientUnits="userSpaceOnUse">
<stop stop-color="#CC966A"/>
<stop offset="1" stop-color="#C19877"/>
</linearGradient>
<linearGradient id="paint10_linear_1959_258" x1="1.6106" y1="61.9238" x2="1.6106" y2="63.1949" gradientUnits="userSpaceOnUse">
<stop stop-color="#CC966A"/>
<stop offset="1" stop-color="#C19877"/>
</linearGradient>
<linearGradient id="paint11_linear_1959_258" x1="2.26668" y1="64.2019" x2="2.26668" y2="69.4147" gradientUnits="userSpaceOnUse">
<stop stop-color="#CC966A"/>
<stop offset="1" stop-color="#C19877"/>
</linearGradient>
<linearGradient id="paint12_linear_1959_258" x1="9.65597" y1="61.6246" x2="9.65597" y2="69.5697" gradientUnits="userSpaceOnUse">
<stop stop-color="#CC966A"/>
<stop offset="1" stop-color="#C19877"/>
</linearGradient>
<linearGradient id="paint13_linear_1959_258" x1="25.2916" y1="61.6193" x2="25.2916" y2="69.5678" gradientUnits="userSpaceOnUse">
<stop stop-color="#CC966A"/>
<stop offset="1" stop-color="#C19877"/>
</linearGradient>
<linearGradient id="paint14_linear_1959_258" x1="47.9605" y1="70.5291" x2="47.9605" y2="71.9128" gradientUnits="userSpaceOnUse">
<stop stop-color="#CC966A"/>
<stop offset="1" stop-color="#C19877"/>
</linearGradient>
<linearGradient id="paint15_linear_1959_258" x1="53.9807" y1="61.3446" x2="53.9807" y2="62.6157" gradientUnits="userSpaceOnUse">
<stop stop-color="#CC966A"/>
<stop offset="1" stop-color="#C19877"/>
</linearGradient>
<linearGradient id="paint16_linear_1959_258" x1="54.636" y1="62.4924" x2="54.636" y2="63.7635" gradientUnits="userSpaceOnUse">
<stop stop-color="#CC966A"/>
<stop offset="1" stop-color="#C19877"/>
</linearGradient>
<linearGradient id="paint17_linear_1959_258" x1="48.0022" y1="61.6246" x2="48.0022" y2="71.3407" gradientUnits="userSpaceOnUse">
<stop stop-color="#CC966A"/>
<stop offset="1" stop-color="#C19877"/>
</linearGradient>
<linearGradient id="paint18_linear_1959_258" x1="53.3235" y1="62.4924" x2="53.3235" y2="63.7635" gradientUnits="userSpaceOnUse">
<stop stop-color="#CC966A"/>
<stop offset="1" stop-color="#C19877"/>
</linearGradient>
</defs>
</svg>
